<?xml version="1.0" encoding="utf-8"?>
<!-- Generator: Adobe Illustrator 14.0.0, SVG Export Plug-In . SVG Version: 6.00 Build 43363)  -->
<!DOCTYPE svg PUBLIC "-//W3C//DTD SVG 1.1//EN" "http://www.w3.org/Graphics/SVG/1.1/DTD/svg11.dtd">
<svg version="1.1" id="Layer_1" xmlns="http://www.w3.org/2000/svg" xmlns:xlink="http://www.w3.org/1999/xlink" x="0px" y="0px"
	 width="612px" height="792px" viewBox="0 0 612 792" enable-background="new 0 0 612 792" xml:space="preserve">
<g>
	<polygon fill-rule="evenodd" clip-rule="evenodd" fill="#FFFFFF" points="209,300 401.756,300 401.756,492.756 209,492.756 
		209,300 	"/>
	<path d="M266.267,466.009h8.994v17.36h-2.777c-0.788,0.608-1.683,0.874-2.53,0.883c-0.615,0.006-1.217-0.123-1.742-0.354h-0.001
		h0.001c-0.001,0-0.001,0-0.001,0c-0.531-0.231-0.997-0.577-1.337-0.989c0,0,0.001-0.002,0-0.002v0.002c0-0.002,0-0.002,0-0.002
		c-0.379-0.46-0.61-1.017-0.617-1.612v-0.002c-0.04-3.614-0.025-6.508-0.009-9.618c0.006-1.654,0.019-3.377,0.019-5.29
		L266.267,466.009L266.267,466.009L266.267,466.009z"/>
	<polygon fill="#808285" points="272.882,466.76 272.882,482.618 274.51,482.618 274.51,466.76 272.882,466.76 272.882,466.76 	"/>
	<path fill="#D1D3D4" d="M272.132,482.698V466.76h-5.117c-0.003,1.771-0.012,3.372-0.018,4.919c-0.015,3.105-0.03,5.994,0.009,9.607
		c0.004,0.418,0.169,0.814,0.443,1.146v0.001c0.262,0.319,0.633,0.59,1.062,0.776h0.001c0.433,0.191,0.929,0.297,1.435,0.292
		c0.729-0.007,1.498-0.249,2.164-0.796L272.132,482.698L272.132,482.698L272.132,482.698z"/>
	<path d="M343.109,466.009h-8.995v17.36h2.778c0.787,0.608,1.682,0.874,2.529,0.883c0.616,0.006,1.217-0.123,1.742-0.354h0.001
		h-0.001c0.001,0,0.001,0,0.001,0c0.531-0.231,0.997-0.577,1.337-0.989c0,0-0.002-0.002,0-0.002v0.002c0-0.002,0-0.002,0-0.002
		c0.38-0.46,0.611-1.017,0.617-1.612v-0.002c0.04-3.614,0.025-6.508,0.009-9.618c-0.006-1.654-0.018-3.377-0.018-5.29
		L343.109,466.009L343.109,466.009L343.109,466.009z"/>
	<polygon fill="#808285" points="336.493,466.76 336.493,482.618 334.865,482.618 334.865,466.76 336.493,466.76 336.493,466.76 	
		"/>
	<path fill="#D1D3D4" d="M337.244,482.698V466.76h5.115c0.003,1.771,0.012,3.372,0.019,4.919c0.016,3.105,0.03,5.994-0.009,9.607
		c-0.005,0.418-0.17,0.814-0.442,1.146v0.001c-0.263,0.319-0.634,0.59-1.063,0.776h-0.002c-0.432,0.191-0.929,0.297-1.435,0.292
		c-0.729-0.007-1.497-0.249-2.163-0.796L337.244,482.698L337.244,482.698L337.244,482.698z"/>
	<polygon points="244.605,445.848 366.15,445.848 366.15,467.446 244.605,467.446 244.605,445.848 244.605,445.848 	"/>
	<polygon fill="#ED1C24" points="245.839,446.897 245.839,465.854 364.825,465.854 364.825,446.897 245.839,446.897 
		245.839,446.897 	"/>
	<polygon fill-rule="evenodd" clip-rule="evenodd" fill="#0098DA" points="280.128,404.02 330.474,404.02 330.474,428.437 
		280.128,428.437 280.128,404.02 280.128,404.02 	"/>
	<path d="M330.135,402.945v25c-16.589,0-33.038,0-49.627,0v-25h-21.253c-3.916,0.024-3.962,2.208-4.002,4.14v0.003
		c-0.001,0.163-0.007,0.34-0.015,0.52l-0.363,8.079c-1.561,1.84-2.973,3.985-4.259,6.245c-1.304,2.291-2.483,4.556-3.567,6.887
		c-1.194,0.91-2.261,2.612-2.261,5.455c0,4.238,0,8.398,0,12.639h121.088v-11.369c0-3.418-0.649-5.805-2.242-6.907
		c-1.06-2.266-2.211-4.473-3.48-6.704c-1.322-2.325-2.779-4.527-4.392-6.402l-0.356-7.922c-0.008-0.18-0.014-0.356-0.015-0.52
		v-0.003c-0.039-1.932-0.085-4.115-4.002-4.14H330.135L330.135,402.945L330.135,402.945z"/>
	<polygon points="259.316,398.243 351.111,398.243 351.111,403.846 259.316,403.846 259.316,398.243 259.316,398.243 	"/>
	<polygon fill="#0098DA" points="260.43,398.992 260.43,402.822 349.91,402.754 349.91,398.992 260.43,398.992 260.43,398.992 	"/>
	<polygon points="255.29,360.993 355.178,360.993 355.178,399.069 255.29,399.069 255.29,360.993 255.29,360.993 	"/>
	<polygon fill="#0098DA" points="256.938,362.043 256.938,398.02 353.529,398.02 353.529,362.043 256.938,362.043 256.938,362.043 	
		"/>
	<polygon points="262.157,326.66 348.336,326.66 348.336,361.752 262.157,361.731 262.157,326.66 262.157,326.66 	"/>
	<path fill="#0098DA" d="M263.663,328.167v32.66h83.167v-32.66C326.852,313.068,286.547,309.003,263.663,328.167L263.663,328.167
		L263.663,328.167z"/>
	<path d="M260.344,327.644c14.067-9.196,28.474-13.986,43.399-14.079c14.901-0.094,30.284,4.493,46.329,14.045
		c0.644,0.382,1.29,0.767,0.521,2.056c-0.77,1.289-1.413,0.905-2.057,0.522c-15.561-9.263-30.43-13.711-44.782-13.622
		c-14.327,0.089-28.195,4.712-41.77,13.587c-0.627,0.41-1.255,0.821-2.076-0.434C259.09,328.465,259.717,328.054,260.344,327.644
		L260.344,327.644L260.344,327.644z"/>
	<path fill="#D1D3D4" d="M305.386,343.901c-18.995,0-34.487,15.493-34.487,34.488c0,9.495,3.873,18.117,10.119,24.362
		s14.872,10.119,24.368,10.119c18.989,0,34.482-15.493,34.482-34.481c0-9.497-3.875-18.122-10.12-24.368
		C323.504,347.773,314.882,343.901,305.386,343.901L305.386,343.901L305.386,343.901z"/>
	<path fill-rule="evenodd" clip-rule="evenodd" d="M293.855,344.249c2.264-2.198,2.229-4.633,2.231-6.952
		c0.004-6.589-0.069-13.178-0.104-19.766c-0.628-1.18-1.257-2.359-1.886-3.539c2.205-1.431,1.339-3.754,3.334-4.653
		c2.557-1.152,13.061-1.076,15.369,0c1.933,0.901,0.47,2.75,2.634,4.653c-0.494,1.179-0.986,2.359-1.48,3.539
		c-0.014,6.588-0.063,13.178-0.042,19.766c0.009,2.318,0.208,4.871,2.242,6.952C308.369,341.538,300.936,342.125,293.855,344.249
		L293.855,344.249L293.855,344.249z"/>
	<path fill-rule="evenodd" clip-rule="evenodd" fill="#D1D3D4" d="M299.667,343.121c0-8.687,0-16.904,0-25.592
		c-0.351-0.942-0.702-1.886-1.053-2.83c0.507-0.51,1.014-1.021,1.521-1.533c0.585-2.122,1.521-2.711,2.691-2.83
		c-0.039,1.062-0.195,2.124-0.234,3.184c-0.429,0.512-0.741,1.021-1.17,1.532c0.78,0.787,0.976,2.279,1.755,3.066
		c0,8.491,0,15.922,0,24.413C302.007,342.531,300.837,342.768,299.667,343.121L299.667,343.121L299.667,343.121z"/>
	<path fill-rule="evenodd" clip-rule="evenodd" d="M268.109,448.233c5.454,0,9.903,4.449,9.903,9.904
		c0,5.454-4.449,9.902-9.903,9.902c-5.455,0-9.904-4.448-9.904-9.902C258.206,452.683,262.655,448.233,268.109,448.233
		L268.109,448.233L268.109,448.233z"/>
	<path fill-rule="evenodd" clip-rule="evenodd" d="M341.89,448.233c5.454,0,9.902,4.449,9.902,9.904
		c0,5.454-4.448,9.902-9.902,9.902c-5.455,0-9.904-4.448-9.904-9.902C331.985,452.683,336.435,448.233,341.89,448.233
		L341.89,448.233L341.89,448.233z"/>
	<path d="M295.988,401.022c1.577,0,2.388,0.902,3.342,1.974c0,0,0,0,0,0.001v-0.001c0.001,0.001,0,0.001,0,0.001
		c1.263,1.411,2.826,3.156,7.093,3.156c4.269,0,5.831-1.745,7.094-3.156c0,0,0,0,0-0.001v0.001c0.002-0.001,0-0.001,0-0.001
		c0.956-1.071,1.763-1.974,3.342-1.974v0.749c-1.244,0-1.948,0.788-2.781,1.723v0.002c-1.364,1.525-3.044,3.408-7.654,3.408
		c-4.609,0-6.29-1.883-7.654-3.408v-0.002c-0.833-0.935-1.538-1.723-2.781-1.723V401.022L295.988,401.022L295.988,401.022z"/>
	<path d="M320.164,360.396c2.737,0,5.225,1.113,7.02,2.909c1.799,1.797,2.911,4.281,2.911,7.021c0,5.481-4.449,9.932-9.931,9.932
		c-2.74,0-5.225-1.114-7.021-2.912c-1.797-1.796-2.909-4.282-2.909-7.021C310.233,364.845,314.682,360.396,320.164,360.396
		L320.164,360.396L320.164,360.396z"/>
	<path d="M290.602,360.396c2.738,0,5.225,1.113,7.021,2.909c1.797,1.797,2.911,4.281,2.911,7.021c0,5.481-4.45,9.932-9.932,9.932
		c-2.74,0-5.223-1.114-7.021-2.912c-1.796-1.796-2.91-4.282-2.91-7.021C280.671,364.845,285.12,360.396,290.602,360.396
		L290.602,360.396L290.602,360.396z"/>
	<path fill="#0098DA" d="M331.092,404.313v23.468H354.8l-0.021-0.508l-0.858-19.065c-0.007-0.168-0.012-0.329-0.013-0.48v-0.003
		c-0.037-1.791-0.082-3.389-3.711-3.411H331.092L331.092,404.313L331.092,404.313z"/>
	<path fill="#0098DA" d="M279.552,404.343v23.438h-23.944l0.021-0.508l0.856-19.065c0.008-0.168,0.012-0.329,0.014-0.48v-0.003
		c0.037-1.791-0.281-3.36,3.349-3.382H279.552L279.552,404.343L279.552,404.343z"/>
	<path fill="#D1D3D4" d="M245.839,434.273v11.589h118.986c0-3.441,0-6.882,0-10.321c0-3.514-0.933-6.545-3.646-6.545
		c-38.102,0-73.953,0-112.076,0C248.158,428.996,245.839,430.437,245.839,434.273L245.839,434.273L245.839,434.273z"/>
	<path fill="#D1D3D4" d="M254.324,427.945l0.438-10.604c-2.377,3.365-4.424,6.865-6.419,10.784c0.421-0.162,0.66-0.18,1-0.18
		c0.344,0,0.687,0,1.031,0c0.026-0.001,0.051,0,0.077,0c0.625-0.025,1.278-0.015,1.955,0c0.028,0,0.059,0,0.085,0
		C253.101,427.945,253.714,427.945,254.324,427.945L254.324,427.945L254.324,427.945z"/>
	<path fill="#D1D3D4" d="M356.319,427.945l-0.17-3.788l-0.001-0.04l-0.008-0.17c-0.087-2.355-0.17-3.973-0.258-6.375
		c2.685,3.374,4.236,6.43,6.278,10.456c-0.415-0.12-0.725-0.083-0.976-0.083c-0.264,0-0.526,0-0.791,0
		c-0.024-0.001-0.052,0.002-0.076,0c-0.622-0.023-1.279-0.017-1.955,0c-0.029,0.002-0.059,0-0.086,0
		C357.626,427.945,356.971,427.945,356.319,427.945L356.319,427.945L356.319,427.945z"/>
	<path fill-rule="evenodd" clip-rule="evenodd" d="M286.725,408.464v19.909h36.997v-19.909
		C311.6,415.489,299.057,415.384,286.725,408.464L286.725,408.464L286.725,408.464z"/>
	<polygon fill="#FFF200" points="245.681,444.197 245.681,445.988 364.936,445.988 364.936,444.197 245.681,444.197 
		245.681,444.197 	"/>
	<path d="M246.057,444.572v1.041h118.504v-1.041H246.057L246.057,444.572z M245.306,445.988v-1.791v-0.375h0.375h119.254h0.375
		v0.375v1.791v0.375h-0.375H245.681h-0.375V445.988L245.306,445.988z"/>
	<path fill-rule="evenodd" clip-rule="evenodd" d="M294.683,356.1c0.198-0.594,0.396-1.188,0.594-1.783
		c-3.345-1.123-7.085-0.462-8.253,1.783C289.578,354.912,292.461,355.176,294.683,356.1L294.683,356.1L294.683,356.1z"/>
	<path fill-rule="evenodd" clip-rule="evenodd" d="M315.688,356.1c-0.198-0.594-0.396-1.188-0.595-1.783
		c3.344-1.123,7.086-0.462,8.252,1.783C320.792,354.912,317.91,355.176,315.688,356.1L315.688,356.1L315.688,356.1z"/>
	<path d="M260.787,428.281v-0.376h4.318v0.376c0,1.374-0.007,2.721-0.012,4.056c-0.012,2.642-0.024,5.252,0.012,7.967
		c0.009,0.728,0.895,1.233,1.422,1.534h0.003c0.011,0.008,0.019,0.012,0.113,0.067l0.188,0.109v2.104h-7.977v-2.114l0.201-0.106
		c0.096-0.049,0.204-0.103,0.312-0.152c0.585-0.278,1.412-0.673,1.419-1.45c0.027-2.76,0.018-5.306,0.009-7.916v-0.002
		C260.792,431.044,260.787,429.69,260.787,428.281L260.787,428.281L260.787,428.281z"/>
	<path fill="#808285" d="M261.54,428.655c0.001,1.277,0.003,2.506,0.006,3.721v0.001v-0.001v0.001
		c0.011,2.615,0.02,5.161-0.009,7.924c-0.012,1.247-1.091,1.762-1.853,2.123l-0.003,0.002c-0.027,0.012-0.051,0.025-0.077,0.037
		v0.905h6.477v-0.922c-0.675-0.386-1.712-1.025-1.726-2.134c-0.038-2.718-0.026-5.332-0.012-7.978
		c0.004-1.216,0.01-2.436,0.012-3.68H261.54L261.54,428.655L261.54,428.655z"/>
	<path d="M343.798,428.281v-0.376h4.319v0.376c0,1.374-0.008,2.721-0.013,4.056c-0.013,2.642-0.024,5.252,0.013,7.967
		c0.009,0.728,0.893,1.233,1.421,1.534h0.003c0.011,0.008,0.018,0.012,0.113,0.067l0.188,0.109v2.104h-7.978v-2.114l0.201-0.106
		c0.096-0.049,0.204-0.103,0.312-0.152c0.586-0.278,1.412-0.673,1.42-1.45c0.026-2.76,0.018-5.306,0.009-7.916v-0.002
		C343.804,431.044,343.798,429.69,343.798,428.281L343.798,428.281L343.798,428.281z"/>
	<path fill="#808285" d="M344.552,428.655c0.001,1.277,0.002,2.506,0.005,3.721v0.001v-0.001v0.001
		c0.011,2.615,0.02,5.161-0.009,7.924c-0.012,1.247-1.09,1.762-1.853,2.123l-0.003,0.002c-0.027,0.012-0.052,0.025-0.077,0.037
		v0.905h6.477v-0.922c-0.675-0.386-1.713-1.025-1.726-2.134c-0.037-2.718-0.025-5.332-0.013-7.978
		c0.005-1.216,0.011-2.436,0.013-3.68H344.552L344.552,428.655L344.552,428.655z"/>
	<path d="M303.031,428.281v-0.376h4.318v0.376c0,1.374-0.008,2.721-0.012,4.056c-0.012,2.642-0.023,5.252,0.012,7.967
		c0.009,0.728,0.895,1.233,1.423,1.534h0.003c0.011,0.008,0.018,0.012,0.112,0.067l0.188,0.109v2.104h-7.977v-2.114l0.201-0.106
		c0.096-0.049,0.204-0.103,0.312-0.152c0.585-0.278,1.412-0.673,1.42-1.45c0.026-2.76,0.018-5.306,0.009-7.916v-0.002
		C303.036,431.044,303.031,429.69,303.031,428.281L303.031,428.281L303.031,428.281z"/>
	<path fill="#808285" d="M303.784,428.655c0.002,1.277,0.003,2.506,0.006,3.721v0.001v-0.001v0.001
		c0.01,2.615,0.019,5.161-0.009,7.924c-0.012,1.247-1.091,1.762-1.853,2.123l-0.003,0.002c-0.027,0.012-0.051,0.025-0.077,0.037
		v0.905h6.477v-0.922c-0.677-0.386-1.713-1.025-1.726-2.134c-0.039-2.718-0.027-5.332-0.014-7.978
		c0.004-1.216,0.012-2.436,0.014-3.68H303.784L303.784,428.655L303.784,428.655z"/>
	<path d="M286.597,428.145l-0.048,0.417c-0.196,1.715-0.518,3.335-0.834,4.951c-0.628,3.191-1.257,6.388-0.921,10.25l0.036,0.406
		h-4.062l-0.021-0.353c-0.246-4.179,0.394-7.354,1.034-10.526c0.315-1.565,0.633-3.137,0.837-4.816l0.041-0.329H286.597
		L286.597,428.145L286.597,428.145z"/>
	<path fill="#808285" d="M285.757,428.894h-2.436c-0.207,1.586-0.51,3.067-0.806,4.543c-0.612,3.03-1.222,6.069-1.036,9.981h2.533
		c-0.266-3.771,0.35-6.912,0.967-10.05C285.268,431.898,285.562,430.427,285.757,428.894L285.757,428.894L285.757,428.894z"/>
	<path d="M323.11,428.145l0.048,0.417c0.195,1.715,0.518,3.335,0.834,4.951c0.629,3.191,1.258,6.388,0.921,10.25l-0.035,0.406h4.061
		l0.022-0.353c0.245-4.179-0.393-7.354-1.034-10.526c-0.315-1.565-0.634-3.137-0.838-4.816l-0.04-0.329H323.11L323.11,428.145
		L323.11,428.145z"/>
	<path fill="#808285" d="M323.95,428.894h2.436c0.208,1.586,0.51,3.067,0.806,4.543c0.612,3.03,1.221,6.069,1.035,9.981h-2.533
		c0.267-3.771-0.35-6.912-0.965-10.05C324.44,431.898,324.145,430.427,323.95,428.894L323.95,428.894L323.95,428.894z"/>
	<path fill-rule="evenodd" clip-rule="evenodd" d="M277.69,328.277c5.582,0,10.139,4.557,10.139,10.142
		c0,5.582-4.557,10.139-10.139,10.139c-5.585,0-10.142-4.557-10.142-10.139C267.548,332.834,272.105,328.277,277.69,328.277
		L277.69,328.277L277.69,328.277z"/>
	<path fill-rule="evenodd" clip-rule="evenodd" fill="#FFF200" d="M277.69,329.495c4.913,0,8.922,4.009,8.922,8.925
		c0,4.913-4.009,8.922-8.922,8.922c-4.916,0-8.925-4.009-8.925-8.922C268.765,333.503,272.774,329.495,277.69,329.495
		L277.69,329.495L277.69,329.495z"/>
	<path fill-rule="evenodd" clip-rule="evenodd" d="M277.688,331.117c4.021,0,7.301,3.28,7.301,7.301s-3.28,7.301-7.301,7.301
		s-7.301-3.28-7.301-7.301S273.667,331.117,277.688,331.117L277.688,331.117L277.688,331.117z"/>
	<path fill-rule="evenodd" clip-rule="evenodd" d="M333.788,328.277c5.582,0,10.139,4.557,10.139,10.142
		c0,5.582-4.557,10.139-10.139,10.139c-5.585,0-10.142-4.557-10.142-10.139C323.646,332.834,328.203,328.277,333.788,328.277
		L333.788,328.277L333.788,328.277z"/>
	<path fill-rule="evenodd" clip-rule="evenodd" fill="#FFF200" d="M333.788,329.495c4.913,0,8.922,4.009,8.922,8.925
		c0,4.913-4.009,8.922-8.922,8.922c-4.916,0-8.925-4.009-8.925-8.922C324.863,333.503,328.872,329.495,333.788,329.495
		L333.788,329.495L333.788,329.495z"/>
	<path fill-rule="evenodd" clip-rule="evenodd" d="M333.786,331.117c4.021,0,7.302,3.28,7.302,7.301s-3.28,7.301-7.302,7.301
		c-4.021,0-7.301-3.28-7.301-7.301S329.766,331.117,333.786,331.117L333.786,331.117L333.786,331.117z"/>
	<path fill="#FFFFFF" d="M319.965,368.448c2.844,0,5.162,2.544,5.162,5.665c0,1.932-0.895,3.643-2.246,4.666
		c3.572-1.151,6.163-4.5,6.163-8.452c0-2.452-0.993-4.673-2.601-6.28c-1.604-1.604-3.828-2.6-6.279-2.6
		c-4.901,0-8.881,3.979-8.881,8.88c0,2.452,0.996,4.675,2.6,6.28c0.811,0.81,1.779,1.463,2.853,1.913
		c-1.174-1.04-1.933-2.628-1.933-4.406c0-0.895,0.193-1.744,0.531-2.499l2.524,1.156l-0.565-3.502
		C318.072,368.748,318.989,368.448,319.965,368.448L319.965,368.448L319.965,368.448z"/>
	<path fill="#FFFFFF" d="M290.404,368.448c2.843,0,5.162,2.544,5.162,5.665c0,1.932-0.894,3.643-2.246,4.666
		c3.572-1.151,6.164-4.5,6.164-8.452c0-2.452-0.995-4.673-2.602-6.28c-1.604-1.604-3.828-2.6-6.28-2.6c-4.9,0-8.88,3.979-8.88,8.88
		c0,2.452,0.997,4.675,2.6,6.28c0.811,0.81,1.779,1.463,2.851,1.913c-1.173-1.04-1.931-2.628-1.931-4.406
		c0-0.895,0.191-1.744,0.531-2.499l2.523,1.156l-0.565-3.502C288.51,368.748,289.427,368.448,290.404,368.448L290.404,368.448
		L290.404,368.448z"/>
	<path d="M290.291,392.854c-2.007,0.989-4.412,1.764-7.307,2.185l-0.105-0.741c4.228-0.617,6.871-1.99,9.237-3.696
		c2.29-1.649,4.366-3.618,5.549-5.519c-0.781-1.508-0.787-3.458,0.45-5.849l0.666,0.343c-1.889,3.652-0.531,6.127,1.983,7.427
		c1.462,0.756,3.314,1.129,5.158,1.125h0.002h-0.002h0.002c1.843-0.006,3.677-0.396,5.109-1.166
		c2.432-1.307,3.691-3.767,1.749-7.381l0.66-0.354c1.266,2.358,1.314,4.291,0.595,5.789c1.188,1.922,3.275,3.916,5.59,5.585
		c2.366,1.706,5.011,3.079,9.239,3.696l-0.105,0.741c-2.835-0.414-5.2-1.165-7.181-2.122c-0.007,0.005-0.013,0.011-0.019,0.016
		c-1.718,1.082-3.3,2.749-4.866,4.208c-3.103,2.887-6.17,6.257-10.387,6.257c-4.192,0-7.432-3.347-10.721-6.217
		c-1.682-1.469-3.384-3.152-5.208-4.244C290.342,392.915,290.315,392.886,290.291,392.854L290.291,392.854L290.291,392.854z
		 M298.107,385.784c-1.205,1.876-2.806,3.798-5.064,5.424c-0.521,0.375-1.073,0.728-1.666,1.068
		c2.462,0.233,4.848,1.192,7.211,2.429c2.492,1.304,4.962,2.083,7.377,2.083c2.414,0,4.883-0.779,7.376-2.083
		c2.311-1.21,4.641-2.138,7.046-2.411c-0.601-0.343-1.158-0.707-1.687-1.086c-2.276-1.64-3.887-3.58-5.094-5.469
		c-0.546,0.764-1.312,1.396-2.222,1.885c-1.542,0.828-3.503,1.249-5.461,1.256h-0.001c-1.956,0.006-3.931-0.397-5.503-1.209
		C299.481,387.184,298.684,386.553,298.107,385.784L298.107,385.784L298.107,385.784z"/>
	<path fill="#FFFFFF" d="M292.041,393.131c1.4,0.985,2.724,2.14,4.04,3.289c3.181,2.777,6.317,5.515,10.229,5.515
		c3.922,0,6.882-2.754,9.877-5.54c1.23-1.145,2.47-2.296,3.793-3.277c-2.104,0.362-4.208,1.46-6.291,2.551
		c-2.574,1.347-5.124,2.683-7.722,2.683c-2.599,0-5.149-1.336-7.722-2.683C296.189,394.591,294.117,393.507,292.041,393.131
		L292.041,393.131L292.041,393.131z"/>
	<path d="M276.292,359.386c-0.707-0.349-1.804-0.879-2.577-1.158c-1.779-0.646-3.735-1.068-5.854-1.059c-0.001,0-0.001,0-0.001,0
		h0.001c-1.59,0.006-3.113,0.259-4.585,0.822c-1.469,0.56-2.895,1.434-4.294,2.679l0.299,0.786l15.28-0.003h0.563L276.292,359.386
		L276.292,359.386L276.292,359.386z"/>
	<path fill="#0098DA" d="M275.123,360.552l0.334-0.604c-0.656-0.321-1.339-0.621-2.048-0.878c-1.683-0.612-3.535-1.01-5.546-1.002
		h-0.001c-1.483,0.004-2.9,0.24-4.264,0.762c-1.037,0.396-2.051,0.965-3.057,1.725L275.123,360.552L275.123,360.552L275.123,360.552
		z"/>
	<path d="M334.571,359.386c0.706-0.349,1.803-0.879,2.576-1.158c1.778-0.646,3.734-1.068,5.853-1.059c0.002,0,0.002,0,0.002,0H343
		c1.592,0.006,3.113,0.259,4.587,0.822c1.469,0.56,2.894,1.434,4.294,2.679l-0.298,0.786l-15.28-0.003h-0.563L334.571,359.386
		L334.571,359.386L334.571,359.386z"/>
	<path fill="#0098DA" d="M335.74,360.552l-0.335-0.604c0.655-0.321,1.34-0.621,2.048-0.878c1.684-0.612,3.535-1.01,5.546-1.002H343
		c1.484,0.004,2.901,0.24,4.266,0.762c1.036,0.396,2.052,0.965,3.057,1.725L335.74,360.552L335.74,360.552L335.74,360.552z"/>
	<path d="M305.386,342.4c9.907,0,18.906,4.044,25.425,10.563c6.514,6.517,10.557,15.516,10.557,25.425
		c0,19.814-16.168,35.981-35.982,35.981c-9.909,0-18.908-4.042-25.424-10.557c-6.52-6.519-10.563-15.519-10.563-25.425
		C269.398,358.567,285.564,342.4,305.386,342.4L305.386,342.4L305.386,342.4z M305.386,343.901
		c-18.995,0-34.487,15.493-34.487,34.488c0,9.495,3.873,18.117,10.119,24.362s14.872,10.119,24.368,10.119
		c18.989,0,34.482-15.493,34.482-34.481c0-9.497-3.875-18.122-10.12-24.368C323.504,347.773,314.882,343.901,305.386,343.901
		L305.386,343.901L305.386,343.901z"/>
	<path d="M297.36,448.619h15.346v14.493H297.36V448.619L297.36,448.619L297.36,448.619z M298.11,449.37v12.993h13.847V449.37H298.11
		L298.11,449.37L298.11,449.37z"/>
	<path d="M293.492,427.97l-0.003,0.376c-0.048,7.703-0.101,15.412-0.15,23.116c0.011,0,0.022,0,0.033,0c0.002,0,0.002,0,0.003,0
		h-0.003c0.002,0,0.002,0,0.003,0c0.273,0,0.549,0,0.819-0.002h-0.001h0.001c1.438-0.016,2.409,0.728,2.884,1.728v0.002
		c0.202,0.424,0.312,0.898,0.329,1.373c0.017,0.473-0.062,0.957-0.232,1.408c-0.417,1.099-1.397,1.999-2.948,2.116
		c-2.275,0.171-4.559,0.095-6.836,0.021h-0.001c-0.213-0.007-0.431-0.017-0.621-0.021h-0.001c-1.427-0.046-2.305-0.745-2.713-1.671
		c-0.186-0.421-0.273-0.895-0.268-1.368c0.006-0.464,0.103-0.942,0.281-1.384c0.441-1.093,1.385-1.981,2.692-2.048h0.002
		c0.589-0.028,1.184-0.02,1.775-0.009c0.167,0.001,0.336,0.007,0.502,0.009l0.456-23.279l0.007-0.367H293.492L293.492,427.97
		L293.492,427.97z"/>
	<path fill="#808285" d="M292.738,428.72h-2.503l-0.456,23.279l-0.006,0.368h-0.369c-0.294,0-0.59-0.006-0.879-0.009h-0.002
		c-0.573-0.011-1.151-0.02-1.727,0.009c-0.983,0.049-1.697,0.734-2.038,1.575c-0.141,0.352-0.219,0.738-0.224,1.114
		c-0.004,0.368,0.063,0.734,0.204,1.057c0.299,0.677,0.96,1.188,2.048,1.223c0.222,0.006,0.424,0.015,0.625,0.021h0.001h-0.001
		h0.001c2.25,0.073,4.503,0.147,6.754-0.021c1.218-0.092,1.985-0.786,2.306-1.632c0.134-0.352,0.194-0.739,0.182-1.117
		c-0.012-0.375-0.101-0.746-0.257-1.079v-0.001v0.001c0-0.001,0-0.001,0-0.001c-0.358-0.75-1.097-1.309-2.198-1.297H294.2
		c-0.271,0.001-0.552,0.001-0.828,0.001h-0.003c-0.135,0-0.273-0.001-0.41-0.001h-0.376l0.001-0.376
		C292.633,444.129,292.69,436.422,292.738,428.72L292.738,428.72L292.738,428.72z"/>
	<path d="M300.875,453.305h8.315v1.42c0.9,0.149,1.485,0.798,1.761,1.595l-0.002-0.001c0.121,0.346,0.185,0.721,0.187,1.084v0.002
		v-0.002v0.002c0.003,0.368-0.056,0.739-0.167,1.076l-0.001,0.001c-0.224,0.674-0.669,1.231-1.332,1.445
		c1.142,2.313,1.093,7.775,1.058,12.187c-0.005,0.643-0.008,1.269-0.009,1.85c0.456,0.22,0.896,0.796,1.123,1.488
		c0.109,0.343,0.175,0.719,0.169,1.082c-0.006,0.38-0.091,0.764-0.276,1.113l0.002-0.002c-0.401,0.757-1.268,1.332-2.848,1.349
		v1.694h-7.34v-1.668c-1.146,0.077-1.972-0.099-2.522-0.426c0,0,0.001-0.001,0-0.001v0.001v-0.001
		c-0.462-0.276-0.747-0.663-0.876-1.103c-0.123-0.421-0.102-0.888,0.027-1.346v-0.002c0.222-0.769,0.768-1.544,1.454-2.083
		c0-0.306-0.001-0.612-0.001-0.915v-0.002c-0.008-4.297-0.011-8.68,0.985-13.168c-0.671-0.167-1.107-0.728-1.313-1.426
		c-0.1-0.346-0.148-0.726-0.142-1.102c0.005-0.375,0.065-0.764,0.172-1.12v0.002c0.255-0.851,0.792-1.547,1.577-1.708V453.305
		L300.875,453.305L300.875,453.305z M303.543,466.733v3.937h3.511v-3.937H303.543L303.543,466.733L303.543,466.733z
		 M303.546,473.442v2.236h3.505v-2.236H303.546L303.546,473.442L303.546,473.442z"/>
	<path fill="#808285" d="M301.626,454.054v1.285l-0.381-0.007c-0.6-0.01-1.026,0.532-1.229,1.21v0.002
		c-0.087,0.288-0.135,0.606-0.14,0.915c-0.004,0.308,0.031,0.614,0.109,0.879c0.158,0.538,0.505,0.94,1.046,0.932l0.482-0.007
		l-0.111,0.468c-1.07,4.545-1.063,9.024-1.057,13.411c0,0.364,0.001,0.732,0.001,1.1v0.195l-0.159,0.109
		c-0.63,0.445-1.133,1.131-1.325,1.802c-0.093,0.329-0.111,0.654-0.03,0.934c0.077,0.26,0.252,0.495,0.543,0.668v0.001
		c0.482,0.288,1.281,0.42,2.473,0.286l0.416-0.046v1.748h5.84v-1.722l0.392,0.017c1.48,0.064,2.236-0.358,2.542-0.938l0.001-0.002
		c0.125-0.233,0.182-0.503,0.186-0.772c0.005-0.285-0.045-0.576-0.131-0.839c-0.192-0.595-0.531-1.066-0.789-1.066h-0.374v-0.375
		c0-0.67,0.008-1.388,0.012-2.134c0.037-4.662,0.087-10.53-1.212-12.235l-0.451-0.59l0.743-0.013
		c0.627-0.009,1.047-0.451,1.236-1.025l-0.001,0.002c0.084-0.257,0.127-0.548,0.126-0.836v-0.003c0-0.289-0.049-0.583-0.14-0.843
		l-0.002-0.001c-0.215-0.621-0.692-1.113-1.433-1.123l-0.371-0.005v-1.382H301.626L301.626,454.054L301.626,454.054z
		 M302.793,465.982h5.012v5.438h-5.012V465.982L302.793,465.982L302.793,465.982z M302.79,472.694h5.019v3.73h-5.019V472.694
		L302.79,472.694L302.79,472.694z"/>
</g>
</svg>
